<svg width="24" height="24" fill="none" xmlns="http://www.w3.org/2000/svg"><path fill-rule="evenodd" clip-rule="evenodd" d="M11.958 15.324c-.83 0-1.658-.162-2.321-.486-.498-.162-1.16-.649-1.492-.973l-.166-.162c-.332-.325-.497-.487-.663-.973-1.16-1.784-.995-4.054.166-5.676.165-.162.165-.324.331-.486l.663-.65c.166 0 .166-.161.332-.161.663-.325 1.326-.649 1.824-.811 1.326-.324 2.32-.162 3.481.324.166.162.332.162.332.162l.497.325c.663.486.995.648 1.326 1.297.663.81.995 1.946.995 3.081s-.497 2.433-1.326 3.243l-.332.325c-.995.973-2.32 1.621-3.647 1.621Zm1.658-4.054c0 .487.331 1.46 0 1.46-.498 0-.995-.649-1.658-.649-.83 0-1.326.649-1.824.649-.166 0 0-.487 0-.649 0-.649.332-1.135-.331-1.784-.332-.324-1.327-.973-.332-1.135.497 0 .995 0 1.326-.324.663-.487.83-1.946 1.327-1.46.165.163.331.973.663 1.298.497.648 1.99.324 1.99.648 0 .325-.498.649-.664.973-.332.162-.497.487-.497.973Zm-6.3-1.46c0 .65 0 .812.166 1.46.165.325.165.487.331.811.332.81.829 1.297 1.658 1.784.497.324 1.824.81 2.487.649.497 0 .497 0 .995-.163 3.481-.81 4.642-5.027 2.155-7.46l-.498-.486c-.331-.162-.497-.162-.663-.324-1.492-.81-3.481-.649-4.808.324l-.497.487c-.829.81-1.326 1.946-1.326 2.919ZM15.77 21h-.166c-.166 0-.332-.162-.497-.486l-2.155-3.892c-.332.162-.498.486-.995.486-.332 0-.663-.162-.83-.324-.165 0-.165-.162-.33-.162 0 .162 0 .324-.166.324l-1.658 3.081c-.166.162-.332.324-.332.649-.332.162-.332.324-.663.324-.166 0-.83-1.46-1.326-1.784-.498-.324-.664-.162-1.327-.324-.663 0-1.326.162-1.326-.324 0-.163.497-.811.663-1.136.332-.648 1.326-2.432 1.824-3.08-.332-.163-.498-.163-.83-.325-.496-.486-.33-.973-.165-1.622.166-1.297-.995-1.297-.995-2.432 0-.487.995-1.135.995-1.784 0-.486 0-.486-.166-.973-.165-1.621 1.327-.973 1.99-1.784.166-.162.166-.324.331-.648.166-.649.332-.973.995-.973.497 0 .995.324 1.326.162.332 0 .83-.487.995-.649.166-.162.663-.324.829-.324.829 0 1.326.973 1.99.973.497 0 .828-.162 1.492-.162.829 0 .829 1.297 1.326 1.621.497.487 1.823.487 1.823 1.298 0 .324 0 .486-.165.648-.166.973-.166.973.497 1.784.166.162.497.649.497.973 0 .649-.994 1.135-.994 1.784 0 .973.829 1.946-.995 2.27l2.155 3.73c.332.324.663.973-.166.973h-.828c-.664 0-.83 0-1.327.324-.331.162-.829 1.135-.995 1.46l-.331.324Z" fill="#000"/></svg>