<svg width="28" height="28" fill="none" xmlns="http://www.w3.org/2000/svg"><path fill-rule="evenodd" clip-rule="evenodd" d="M9.69 18.964c0-.192-.576-.577-.96-.961-1.539-1.539-1.923-3.846-1.154-5.96.577-1.924 1.923-3.077 3.653-3.654.577 0 1.73-.385 2.115-.192.961 0 1.73.384 2.307.576.577.385.77.577 1.154.77l.384.384c.385-.192.577-.577 1.539-.961.384-.193.769-.193 1.153-.385h1.154c.192-.384.769-1.153.577-1.346 0-.192-.193-.384-.385-.577l-.577-.576c-.769-.77-.769-.962-1.73-.385-.192.192-.385.192-.577.385-.577.192-.769 0-1.538-.385-1.923-.961-1.538.192-2.115-1.73-.385-.962-.192-.962-.961-.962-2.5 0-1.923-.192-2.692 1.73-.193.578-.193.385-.77.578-.384.192-1.345.576-1.73.769-.577.384-.577 0-1.153-.193-1.154-.576-1.154-.769-1.923 0-.192.385-.385.577-.577.77-.769.769-.577.576 0 1.922.577 1.154.192.385-.577 2.884-.192.577-.192.577-.769.77-1.153.384-1.538.192-1.538.768v2.115c0 .577.577.385 1.73.962.385 0 .385.384.577.769l.577 1.346c.385.769.577.384-.192 1.73-.577 1.154-.577.77.961 2.5.385.192.577.384.962.192.384-.192.576-.385.96-.577.77-.384.77.192 1.924.577.384.192.769.192 1.153.384.385 0 .385.385.577.77.385 1.345.192 1.345 1.538 1.345 1.73 0 1.538.193 1.923-.96.384-1.154.192-1.154.961-1.347.193 0 .385 0 .577-.192-.577-.77-.577-1.538 0-2.5h-.192l-.193-.384v-.385h-.384l-1.154.385c-.576.192-1.153.192-1.73.192-.77-.192-.961-.192-1.538-.384-.77-.193-1.154-.577-1.346-.577Zm8.46-5.384c0 .962.578 1.923 1.347 2.307 2.5 1.154 4.614-1.345 3.653-3.46-1.346-2.692-5-1.538-5 1.153Zm2.308 3.269c-.961-.192-1.538-.192-2.115-.962-.961-.96-1.154-2.307-.769-3.653.192-.384.384-.576.769-.961.385-.577 1.154-.961 1.923-.961l.192-.193c1.538 0 2.692.577 3.269 1.923.769 1.73 0 3.845-1.73 4.615-.578.192-.962.192-1.539.192Zm0-7.499c-1.154 0-2.115.577-2.692 1.154-1.153 1.154-1.538 3.076-.961 4.614.192.385.384.962.769 1.154.577.77 1.538 1.538 2.5 1.538h-1.731c-.769 0-1.346-.192-1.73.77-.385.576 0 1.345.769 1.538l-.193.192c-.769.384-1.153 1.73.193 2.307h.192c-.577 0-.961.577-.961.961-.193.385 0 .962.384 1.346.385.192.962.192 1.538.192h1.923c.77 0 3.269 0 3.845-.192 1.154-.384.77-2.307-.384-2.307l.384-.192c.193 0 .193 0 .385-.193.192-.192.192-.384.192-.576v-.385c0-.384-.192-.769-.577-.961l-.384-.192c.577 0 .961-.385.961-.962v-.384c0-.193 0-.577-.384-.77-.385-.192-.77-.192-1.346-.192h-1.923c.577 0 1.154-.384 1.538-.577 1.346-.576 2.115-1.922 2.115-3.46v-.577c0-.962-.384-1.923-1.346-2.884-.961-.77-1.922-.962-3.076-.962ZM7.96 13.773c0 1.153 0 1.73.385 2.499.769 1.73 2.692 2.884 4.614 2.884.962 0 2.692-.384 2.885-.961l.384-.385c0-.192.192-.384.385-.384.192-.193.384-.193.576-.385l-.192-.192c-1.538-1.73-1.73-4.615-.192-6.345-.577-.961-2.5-1.538-3.845-1.538-2.692 0-5 2.307-5 4.807Z" fill="#000"/></svg>