<?xml version="1.0" encoding="UTF-8"?>
<!DOCTYPE svg PUBLIC "-//W3C//DTD SVG 1.1//EN" "http://www.w3.org/Graphics/SVG/1.1/DTD/svg11.dtd">
<!-- Creator: CorelDRAW X7 -->
<svg xmlns="http://www.w3.org/2000/svg" xml:space="preserve" width="3.05821in" height="2.27451in" version="1.1" style="shape-rendering:geometricPrecision; text-rendering:geometricPrecision; image-rendering:optimizeQuality; fill-rule:evenodd; clip-rule:evenodd"
viewBox="0 0 3596 2674"
 xmlns:xlink="http://www.w3.org/1999/xlink">
 <defs>
  <style type="text/css">
   <![CDATA[
    .fil0 {fill:black}
   ]]>
  </style>
 </defs>
 <g id="Layer_x0020_1">
  <metadata id="CorelCorpID_0Corel-Layer"/>
  <path class="fil0" d="M997 945c12,52 30,106 45,160l145 492 505 -23c94,-10 240,-13 338,-13 96,0 198,21 272,42l177 66c23,10 31,18 56,24 144,-97 227,-330 227,-513 0,-270 -53,-485 -197,-704 -98,-148 -296,-329 -491,-329 -15,64 -154,216 -204,265 -108,109 -426,285 -573,365 -39,21 -267,160 -300,168zm2542 77l0 0c11,-21 3,-47 -17,-59l-142 -78c-20,-11 -47,-4 -58,17l0 0c-11,21 -4,47 17,58l141 78c21,12 47,4 59,-16zm55 -480l0 0c7,22 -5,47 -28,54l-153 50c-23,7 -47,-5 -54,-28l0 0c-8,-22 5,-47 27,-54l154 -50c22,-7 47,5 54,28zm-295 -373l0 0c21,10 30,36 20,57l-69 147c-10,21 -36,30 -57,20l0 0c-21,-10 -31,-36 -20,-57l69 -146c10,-22 36,-31 57,-21zm-2691 1780c33,142 23,118 148,82 403,-118 289,-69 277,-206 -32,15 -387,106 -425,124zm2286 -1429c57,147 82,256 118,411 105,-3 197,-118 197,-220 0,-119 -101,-213 -219,-213 -50,0 -60,14 -96,22zm-2894 792c0,62 90,332 113,414 45,159 46,116 217,77 -1,-32 -141,-514 -154,-572 -67,32 -176,30 -176,81zm762 798c3,35 125,264 149,313 81,162 95,251 217,251 83,0 118,-60 118,-139 0,-37 -217,-454 -227,-498 -88,20 -171,53 -257,73zm1356 -2037c68,16 110,26 168,52 44,19 96,55 135,84 86,65 153,146 212,235 217,324 304,836 72,1184 -18,27 -25,33 -47,55 -19,20 -42,33 -49,61 48,25 39,31 77,20 31,-10 56,-24 78,-41 43,-35 82,-80 111,-131 76,-136 93,-283 93,-456 0,-280 -136,-639 -300,-859 -61,-81 -152,-177 -245,-223 -76,-38 -104,-54 -203,-54 -71,0 -89,15 -102,73zm-1612 1825c31,0 128,-31 163,-42 56,-16 108,-30 160,-45 54,-16 107,-30 160,-45 176,-49 147,-49 79,-292 -15,-54 -150,-548 -168,-571 -43,-52 -142,2 -239,29l-375 109c-94,29 -56,94 -40,149 19,66 36,124 55,187l137 463c10,31 29,58 68,58z"/>
 </g>
</svg>
