<svg width="24" height="24" fill="none" xmlns="http://www.w3.org/2000/svg"><path fill-rule="evenodd" clip-rule="evenodd" d="M4 9.661c-.403.85-1.43 5.082-1.628 6.043C2.3 16.085 2 17.586 2 17.888c0 .945.838 1.739 1.684 1.739 1.155 0 1.408-.477 2.057-1.453l.276-.413c1.06-1.588 1.384-3.073 3.488-3.073h2.19c0-.5-.07-1.445.087-1.779.61-.143 1.637.246 1.637-.826 0-.762-1.32-.563-1.637-.635-.158-.334-.087-1.278-.087-1.787H8.92c-.704 0-.119-1.064-.514-1.54-.333-.405-1.17-.357-1.179.54 0 1.294.324 1-3.226 1Zm.23-.635h2.365V8.71c0-1.938 2.593-1.898 2.593-.048v.365h2.507v-1.23c-.514 0-.917.031-1.336-.358-.76-.699-.324-2.056.664-2.191.775-.112.672.413.672-1.247-1.352 0-2.072.048-3.408.19-2.412.263-2.475.803-3.242 2.684-.127.31-.736 1.827-.815 2.152Zm8.098-3.565c0 .723-1.012.095-1.51.54-.372.333-.309 1.112.466 1.191 1.178.127 1.044-.516 1.044 1.834h2.776c.474 0 .364.532.364 1.009-.008 1.056 1.28.984 1.32.087.063-1.397-.459-1.096 3.005-1.096-.103-.444-1.044-2.723-1.241-3.184-.593-1.381-1.376-1.469-2.816-1.651C14.471 4.03 13.617 4 12.328 4v1.461Zm0 5.44h.546c.632 0 1.186.642 1.186 1.278 0 .635-.554 1.278-1.186 1.278h-.546v1.23c.854 0 2.586-.095 3.282.183 1.044.421 1.336 1.176 1.89 2.08.26.43 1.25 2.033 1.613 2.303.475.358.633.374 1.226.374.435 0 .949-.286 1.17-.517.736-.73.459-1.595.34-2.286a48.774 48.774 0 0 0-1.226-5.257l-.45-1.46c-.056-.168-.087-.446-.245-.446h-2.5c0 .477 0 .945-.308 1.295a1.305 1.305 0 0 1-1.96.024c-.357-.39-.325-.787-.325-1.319h-2.507v1.24Z" fill="#000"/></svg>