<svg xmlns="http://www.w3.org/2000/svg" xml:space="preserve" width="495.938" height="459.942" style="shape-rendering:geometricPrecision;text-rendering:geometricPrecision;image-rendering:optimizeQuality;fill-rule:evenodd;clip-rule:evenodd" viewBox="0 0 5166 4791"><path d="M1666 1823c0 94 88 208 230 208h1374c74 0 119-23 160-60 133-122 39-307-39-436-148-245-453-452-766-452-276 0-453 62-658 228-126 101-301 356-301 512zM781 3875c55 0 120-18 163-36 152-61 237-203 247-366 15-220-184-421-379-421-140 0-243 28-335 133-133 150-139 378-31 514 84 105 190 176 335 176zm1802 0c150 0 309-97 371-234 24-53 35-95 39-168 15-220-184-421-379-421-140 0-244 28-336 133-132 150-138 378-30 514 48 61 88 104 165 137 43 19 114 39 170 39zm1802 0c105 0 214-50 289-118 21-20 68-86 82-116 139-310-109-589-340-589-140 0-244 28-336 133-61 69-113 170-105 288 15 239 195 402 410 402zM2104 469c0 286 205 489 500 489 245 0 458-214 458-489 0-254-224-469-479-469s-479 215-479 469zm396 2031H781c-50 0-83 33-83 83v297h166v-214h1636v214h166v-214h1636v214h166v-297c0-50-33-83-83-83H2666v-313h-166v313zM0 4593c0 121 82 198 187 198h1188c105 0 187-77 187-198s-152-340-248-418c-329-265-727-265-1060-5-62 50-110 111-154 179-34 53-100 168-100 244zm3604 0c0 121 82 198 187 198h1188c105 0 187-77 187-198 0-179-238-459-452-548-377-156-786-39-1010 304-35 53-100 168-100 244zm-1802 0c0 121 82 198 187 198h1188c105 0 187-77 187-198 0-74-63-187-96-237-135-212-385-377-633-377-164 0-214-1-374 63-216 88-459 368-459 551z" style="fill:#000"/></svg>