<svg width="24" height="22" fill="none" xmlns="http://www.w3.org/2000/svg">
    <path fill-rule="evenodd" clip-rule="evenodd" d="M0 1.446c0 .648.145.788.53 1.16.058.057.123.119.193.19l9.35 9.325.056.066c.122.146.237.284.425.367.241.145.482.193.747.169.523-.042.756-.284 1.028-.567l.129-.132c.104-.104.209-.206.313-.308.209-.203.418-.407.627-.632l.263-.261.001-.001c.516-.512 1.497-1.484 1.615-1.641l3.615 3.614c-.115.176-.332.378-.561.59-.4.372-.837.778-.837 1.145 0 .603.482.844 1.108.844l2.844.12c.114.005.242.012.378.02.549.033 1.211.072 1.501-.044.29-.097.41-.337.434-.627v-.963c0-.113-.01-.205-.022-.302-.012-.111-.026-.23-.026-.397l-.145-3.06c-.072-.434-.433-.796-.819-.796-.43 0-.858.472-1.232.884-.193.212-.371.407-.527.514-.122-.076-1.07-1.028-1.814-1.773a52.709 52.709 0 0 0-.885-.878c-.229-.229-.446-.452-.663-.674a67.6 67.6 0 0 0-.662-.675c-.147-.143-.272-.272-.383-.386-.47-.486-.699-.723-1.4-.723-.516 0-1.227.751-1.772 1.326-.117.124-.227.24-.325.337l-.197.199c-.489.492-1.542 1.554-1.706 1.657-.138-.198-4.984-5.021-7.167-7.195L3.036.964l-.23-.236C2.361.268 2.102 0 1.397 0 .916 0 .41.482.168.843c-.12.169-.168.362-.168.603ZM1.807 22h2.747c.53 0 .699-.386.699-.916V9.928c0-.122-1.325-1.398-1.835-1.89a24.73 24.73 0 0 1-.19-.183l-.344-.35c-.573-.583-1.576-1.603-1.727-1.698l-.002.578c-.007 2.829-.04 14.966.026 15.181.072.265.313.434.626.434Zm8.362 0H7.325c-.41 0-.602-.41-.602-.843v-9.735c.217.048.77.674.94.867.135.136.272.279.412.423.627.653 1.296 1.35 2.045 1.625l.7.193c0 .073 0 .277.003.574.014 1.673.05 6.265-.052 6.51a.623.623 0 0 1-.602.386Zm2.165-7.064v.002c-.01 1.754-.033 6.317.027 6.58.073.241.314.482.579.482h2.891c.338 0 .603-.337.603-.699v-4.82c0-.162-.082-.243-.163-.324-.027-.027-.054-.055-.078-.085-.036-.06-.079-.132-.12-.204a19.564 19.564 0 0 0-.121-.205c-.434-.796-.29-1.76.168-2.482.037-.06.085-.12.133-.181.048-.06.096-.12.133-.18L15.3 11.758c-.14.088-.333.291-.501.47a9.195 9.195 0 0 1-.174.18l-.292.3c-.577.599-1.407 1.458-1.997 1.58 0 .081 0 .313-.003.647ZM18.602 22a.633.633 0 0 1-.65-.65v-4.218c.135 0 .208.013.279.025.067.012.133.024.25.024.507 0 .989 0 1.519.048.602.072 1.373.096 2.048.096v3.88c0 .217-.048.434-.144.554-.097.096-.29.241-.458.241h-2.844Z" fill="#fff"/>
</svg>
