<svg xmlns="http://www.w3.org/2000/svg" width="427" height="460" fill="none"><g fill="#fff" fill-rule="evenodd" clip-path="url(#a)" clip-rule="evenodd"><path d="M.028 141.225V374.93c0 19.227 3.927 33.038 14.353 47.12 3.791 5.01 8.26 9.343 13.27 12.999 3.79 2.843 6.499 4.604 10.967 6.905 7.447 3.656 17.738 7.177 28.57 7.177H242.67v-34.799H71.792c-5.552 0-10.562-.812-14.76-2.572-12.592-5.146-21.799-17.197-21.799-31.143V154.359c0-19.092 29.112-15.977 43.194-15.977h29.517c11.103 0 19.227 1.354 25.05-4.469 7.176-7.311 5.957-12.592 5.957-23.695 0-12.051-.541-49.422.542-58.494.677-7.312 4.468-17.06 12.593-17.06h124.299c19.498 0 34.799 15.57 34.799 36.152v153.952h34.663V66.212c0-8.937-3.114-20.04-6.229-26.133-2.708-5.551-5.416-10.426-9.343-15.03-3.385-4.062-4.062-4.874-8.124-8.26-1.625-1.353-2.979-2.572-4.739-3.79-1.625-1.219-3.114-2.167-4.739-3.25C304.549 4.604 291.55 0 281.124 0H136.108c-14.082 0-33.444 17.196-42.516 26.404-2.573 2.572-6.093 6.499-8.802 8.53-2.166 1.76-39.808 40.892-45.495 45.63-3.656 3.115-3.114 2.438-6.5 6.635-3.114 3.656-11.915 11.645-16.925 17.873C7.205 115.769.028 125.518.028 141.225Z"/><path d="M261.491 252.526c0 3.385 6.499 28.841 6.499 31.82 0 1.218.541.406-2.031 2.302-.813.677-1.49 1.083-2.302 1.895-4.062 3.521-7.041 6.5-10.426 10.697-1.083 1.354-1.219.948-1.625 2.573l-24.779-5.823c-1.895-.406-6.499-1.76-8.53-1.76-.271 2.031-6.499 16.248-7.853 19.498-.813 2.031-2.302 4.739-2.573 6.77 2.302 1.49 4.468 3.114 6.77 4.468l17.196 11.104c1.354.812 2.302 1.489 3.792 2.301l-.542 16.384c0 3.385.542 4.739.542 7.989l-24.508 14.894c-1.354.948-2.031 1.625-3.656 2.031.135 2.302 6.364 16.519 7.718 19.904.948 2.302 2.031 4.469 2.572 6.906 2.438-.135 5.823-1.083 8.26-1.625l25.05-5.416c.812 1.354 2.301 3.25 3.385 4.468 2.437 2.573 10.019 11.103 13.134 11.916 0 2.843-6.771 29.788-7.583 33.309 3.385.812 24.643 10.561 26.81 10.832.406-2.166 3.114-5.281 4.197-7.176l13.541-20.988c5.28 0 19.768 1.49 23.966-.541.948 3.249 16.654 25.591 17.331 28.705 2.708-.135 15.842-6.093 20.04-7.718 2.031-.812 4.874-2.166 6.77-2.708L369 433.018c-1.489-5.687-2.572-11.103-3.791-16.79 3.927-2.167 11.78-10.155 14.759-13.811.948-1.354 1.218-.948 1.625-2.573 4.468.136 28.84 7.041 33.715 7.041.812-3.114 10.426-24.237 10.426-25.32 0-1.76-12.322-8.531-13.676-9.478-2.302-1.49-4.739-2.844-7.176-4.469-2.573-1.624-4.739-2.979-7.312-4.333 0-3.385.406-4.603.406-7.988v-9.885c0-2.843-.406-3.385-.406-6.093 2.167-1.489 4.468-2.979 6.906-4.333 2.572-1.625 4.739-3.114 7.176-4.603 4.875-2.844 9.478-6.229 14.488-8.937l-5.416-13.269c-6.499-15.301-3.114-14.082-13.946-11.239-3.927.948-21.936 5.281-24.779 5.281-2.031-3.927-13.54-15.707-16.384-16.384l7.447-33.309c-1.354-.406-2.031-.948-3.249-1.354-1.219-.542-2.167-.812-3.385-1.354-2.979-1.354-18.009-7.989-20.04-8.124-.406 1.625-1.083 2.302-2.031 3.656l-14.894 24.508c-3.521 0-5.281-.542-8.937-.542h-10.291c-2.572 0-2.843.542-5.145.542l-8.801-14.218c-1.489-2.437-2.708-4.603-4.333-7.041-6.093-9.478-.406-8.665-24.237.813-1.083.406-6.228 2.302-6.228 3.114Zm55.379 57.817c22.206 0 40.35 18.144 40.35 40.485 0 22.342-18.144 40.35-40.35 40.35-22.341 0-40.485-18.008-40.485-40.35 0-22.341 18.144-40.485 40.485-40.485ZM86.415 190.105h173.18v-34.798H86.415v34.798Z"/><path d="M86.415 276.357h153.953v-34.663H86.415v34.663ZM86.415 362.744h121.456v-34.663H86.415v34.663Z"/></g><defs><clipPath id="a"><path fill="#fff" d="M0 0h426.169v459.963H0z"/></clipPath></defs></svg>