<?xml version="1.0" encoding="UTF-8"?>
<!DOCTYPE svg PUBLIC "-//W3C//DTD SVG 1.1//EN" "http://www.w3.org/Graphics/SVG/1.1/DTD/svg11.dtd">
<!-- Creator: CorelDRAW X7 -->
<svg xmlns="http://www.w3.org/2000/svg" xml:space="preserve" width="0.831252in" height="0.831252in" version="1.1" style="shape-rendering:geometricPrecision; text-rendering:geometricPrecision; image-rendering:optimizeQuality; fill-rule:evenodd; clip-rule:evenodd"
viewBox="0 0 161 161"
 xmlns:xlink="http://www.w3.org/1999/xlink">
 <defs>
  <style type="text/css">
   <![CDATA[
    .fil0 {fill:black}
   ]]>
  </style>
 </defs>
 <g id="Layer_x0020_1">
  <metadata id="CorelCorpID_0Corel-Layer"/>
  <path class="fil0" d="M115 73l0 88 46 0 0 -88c0,-1 -9,-10 -10,-10l-26 0c-1,0 -10,9 -10,10zm-115 57l0 31 46 0 0 -31c0,-1 -8,-9 -9,-9l-27 0c-1,0 -4,3 -5,4 -1,1 -5,4 -5,5zm58 -23l0 54 46 0 0 -54c0,0 -9,-9 -10,-9l-27 0c-1,0 -9,9 -9,9zm69 -95l14 0c-1,1 -6,6 -7,7l-53 53c-1,-1 -18,-17 -21,-20 -1,-1 -1,-2 -3,-3 0,2 -14,14 -17,18l-6 5c0,1 0,1 0,1l-15 15c0,0 0,0 -1,0l-16 17 8 8c1,0 2,-1 3,-2 5,-6 43,-44 45,-45 1,1 4,4 5,5l2 2c0,0 0,1 1,1l9 9c1,1 5,4 5,6 2,-1 16,-16 18,-17 4,-4 50,-51 52,-52l0 15 11 0 0 -35 -34 0 0 12z"/>
 </g>
</svg>
