<svg xmlns="http://www.w3.org/2000/svg" xml:space="preserve" width="59.939" height="62.95" style="shape-rendering:geometricPrecision;text-rendering:geometricPrecision;image-rendering:optimizeQuality;fill-rule:evenodd;clip-rule:evenodd" viewBox="0 0 80 84">
    <path d="M63 77c-15 6-29-8-25-22 1-6 6-8 6-11-5 1-8 2-13 0-6-2-5-4-11 0C10 50 4 59 1 70c-2 7-1 9 5 9h31c4 0 3-1 6 1 23 14 48-14 31-35-5-7-18-13-18-6 0 2 5 3 6 3 16 6 17 29 1 35zm-6-29c1 0 1 1 1 2v12c0 1 0 2-1 2H44c-1 0-1-1-1-2s0-2 1-2h11V50c0-1 1-2 2-2zm0 16zM35 0C25 2 16 10 18 22c1 10 11 19 22 17 10-1 19-10 17-22C56 8 47-1 35 0z" style="fill:#001121"/>
</svg>
