<svg width="28" height="28" fill="none" xmlns="http://www.w3.org/2000/svg"><path fill-rule="evenodd" clip-rule="evenodd" d="M9.562 21.069c-.165-.165-.33-.494-.494-.658 0-.164-.328-.493-.328-.822.493-.164.986-.493 1.315-.657.329-.165.493-.33.657-.33.165-.164.658-.492.822-.492 0 .164.165.657.329.822.164.164.329.493.329.657-.165 0-1.644.986-1.973 1.15-.164 0-.493.33-.657.33Zm7.068-2.96c.165.165 2.302 1.48 2.63 1.48 0 .493-.657 1.15-.657 1.48l-2.795-1.48c.165-.329.329-.493.329-.822.164-.164.329-.329.493-.657Zm-4.274-1.808c0-.164.165-.164.329-.164h2.63c.165 0 .165.164.165.329h-3.124V16.3Zm.822-1.48h1.48v.823h-1.48v-.822Zm.493-.821h.493v.329h-.493V14Zm5.425 5.096-.986-.493-.987-.658v-.493c-.164-.658-.164-1.15.33-1.48.328-.328 2.3-1.808 2.63-1.808.164 0 .164.165.164.33 0 .164-.822.821-.987.986-.164.164-1.15 1.479-.657 1.479.328 0 .164-.329.822-.986 0 0 0-.165.164-.165.329-.329.986-.986.986-1.315 0-.164 0-.329-.164-.493 0-.164 0-.164-.329-.164 0-.33.329-1.151.493-1.48l.33-.986c0-.164 0-.164.163-.164.165-.165.165-.165.494-.165 0 .493-.165.822-.165 1.315v2.465c0 .823-.164.494-.986 1.645-.822 1.315-.822 1.808-1.315 2.63ZM6.603 11.04c.493 0 .493 0 .822 1.315l.493 1.48c-.165.164-.493.164-.493.657 0 .165.493.822.657.986.165 0 .165.165.329.33.329.164.493.492.657.821.165.329.165.329.33.329.492 0-.33-1.15-.658-1.48-.165-.164-.493-.328-.658-.657 0 0-.164-.164-.164-.329-.165 0-.165-.657.657 0 .658.493 2.137 1.315 2.466 1.973.165.493 0 .493 0 1.48-.164 0-.493.164-.657.328l-1.48.822s-.164-.165-.164-.329-.165-.329-.165-.493l-.493-.986c-.986-1.973-1.48-1.48-1.48-2.302v-3.945Zm10.027 1.15.493-.821c.165-.329.165-.658.33-.986.163-.658.328-1.644.328-2.466 1.315 0 1.15-.165 1.15.822 0 .986-.657 1.972-1.15 2.63-.329.329-.822.822-1.15.822Zm-5.424 0c-.165 0-.33-.164-.494-.328-.986-.657-1.808-1.973-1.808-3.123 0-.987-.164-.822 1.15-.822 0 1.15.33 2.959.987 3.945 0 0 .165.164.165.329ZM14 13.508c-1.973 0-3.123-2.466-3.288-4.11-.164-.657-.164-.822-.328-1.644l.164-.821h6.74l.164.986c-.164.657 0 .657-.164 1.644-.33.986-.494 1.808-1.151 2.63-.493.657-1.15 1.315-2.137 1.315ZM2 13.67c0 2.137.329 3.781 1.15 5.425.494 1.315.823 1.644 1.645 2.63l.657.822c.658.658 1.644 1.315 2.466 1.808l.986.493c1.15.658 2.959 1.151 4.603 1.151h.986c1.644 0 3.617-.493 4.603-1.15.657-.33 1.315-.494 1.808-.987 1.973-1.315 2.959-2.63 3.945-4.767.658-.986 1.151-2.959 1.151-4.603v-.986c0-1.808-.657-4.11-1.48-5.59-.328-.328-.493-.492-.657-.821-.822-1.15-1.644-1.973-2.959-2.959C19.26 2.987 16.794 2 14.494 2h-.823c-1.644 0-3.616.658-4.767 1.15-.657.33-1.644.823-2.301 1.316L4.959 6.11l-.822.986c-.329.657-.658 1.15-.986 1.808C2.493 10.22 2 12.027 2 13.671Z" fill="#000"/><path fill-rule="evenodd" clip-rule="evenodd" d="M13.014 9.397h.657c0-.164.165-.493.165-.657H14c0 .164.164.493.329.657h.657c-.657.493-.657.33-.493 1.151-.164-.164-.329-.329-.493-.329-.165 0-.493.165-.658.329 0-.164.165-.493.165-.658l-.493-.493Zm.328-.493c-.328 0-.328 0-.657.165-.658 0-.493.164 0 .493.164.164.164.328.329.493 0 .164-.165.657-.165.986 0 .493.822-.329.986-.329.165 0 1.151.658 1.151.33 0-.33-.164-.823-.164-.987 0-.165.822-.658.822-.822 0-.164-.165-.164-.493-.164-.33-.165-.33-.165-.658-.165-.329-.657-.493-1.48-.822-.493l-.329.493ZM10.712 18.932c0 .493.987.493.987 0 0-.658-.987-.658-.987 0ZM16.794 18.932c.165 0 0-.165 0 0Zm-.493 0c0 .493.987.493.987 0 0-.658-.987-.658-.987 0Z" fill="#000"/></svg>