<svg xmlns="http://www.w3.org/2000/svg" xml:space="preserve" width="163.334" height="155.04" style="shape-rendering:geometricPrecision;text-rendering:geometricPrecision;image-rendering:optimizeQuality;fill-rule:evenodd;clip-rule:evenodd" viewBox="0 0 246 233"><path d="M86 233h73V74H86v159zm27-212c-6 0-17 3-23 3 1 3 16 15 16 17s-3 22-4 23c2 0 4-2 6-3l15-8c3 1 8 4 11 6l10 5-4-23c3-2 9-9 13-12 2-2 4-3 4-5-4 0-13-2-19-2-6-1-4 0-10-12-1-2-4-8-4-10l-11 21zm-95 80-4 23c4 0 19-10 21-10s18 10 21 10c0-2-3-21-4-23 2-1 4-3 6-5l8-8 2-2c2-2 1-1-10-3-3 0-6-1-9-1s-3 0-4-2c-1-1-1-2-2-4l-8-15c-1 2-7 13-8 15 0 1-1 2-1 3-1 2-1 2-4 3-3 0-6 1-10 1-13 2-12 1-6 7l12 11zm182-44-12 2c-3 0-8 1-11 2 1 2 15 14 16 16l-4 23c3 0 19-10 21-10 1 0 4 1 5 2 2 1 3 2 5 3 3 1 9 5 11 5-1-6-2-13-3-19-1-5-1-3 8-13 3-3 7-5 7-7l-21-4c-2 0-1 0-2-2-2-3-3-6-5-9-1-3-4-8-5-10-1 1-4 8-5 10-1 3-5 9-5 11zM0 233h73v-98H0v98zm173 0h73V110h-73v123z" style="fill:#010002"/></svg>