<svg width="24" height="20" viewBox="0 0 24 20" fill="none" xmlns="http://www.w3.org/2000/svg">
<path d="M21.6188 4.28571H3.75C3.33562 4.28571 3 3.96607 3 3.57143C3 3.17679 3.33562 2.85714 3.75 2.85714H21.75C22.1644 2.85714 22.5 2.5375 22.5 2.14286C22.5 0.959375 21.4927 0 20.25 0H3C1.34297 0 0 1.27902 0 2.85714V17.1429C0 18.721 1.34297 20 3 20H21.6188C22.9322 20 24 19.0388 24 17.8571V6.42857C24 5.24688 22.9322 4.28571 21.6188 4.28571ZM19.5 13.5714C18.6717 13.5714 18 12.9317 18 12.1429C18 11.354 18.6717 10.7143 19.5 10.7143C20.3283 10.7143 21 11.354 21 12.1429C21 12.9317 20.3283 13.5714 19.5 13.5714Z" fill="white"/>
</svg>
